<svg xmlns="http://www.w3.org/2000/svg" width="144" height="29" viewBox="0 0 144 29"><g><g><path fill="#173a56" d="M130.278 5.242l3.885 9.85 3.624-9.85h5.48l-10.09 23.73h-5.45l3.798-8.265-6.785-15.465zM123.116 0v21.312h-4.958V0zm-7.751 17.07v4.232h-2.23c-1.893 0-3.366-.465-4.418-1.396-1.053-.93-1.579-2.47-1.579-4.62V9.385h-2.173V5.24h2.173V1.296h4.953V5.24h3.245v4.145h-3.245v5.987c0 .633.13 1.075.391 1.324.261.25.7.375 1.318.375zM95.716 5.04c2.088 0 3.837.571 5.248 1.714 1.411 1.142 2.3 2.712 2.668 4.708h-5.248c-.155-.69-.474-1.228-.957-1.612-.483-.384-1.092-.576-1.827-.576-.87 0-1.585.34-2.145 1.022-.561.682-.841 1.675-.841 2.98 0 1.306.28 2.3.84 2.982.561.681 1.276 1.022 2.146 1.022.735 0 1.344-.192 1.827-.576.483-.384.802-.922.957-1.613h5.248c-.368 1.997-1.257 3.567-2.668 4.709-1.41 1.142-3.16 1.714-5.248 1.714-1.585 0-2.991-.332-4.219-.994-1.227-.662-2.189-1.618-2.884-2.866-.696-1.248-1.044-2.707-1.044-4.377 0-1.69.343-3.154 1.029-4.392a7.03 7.03 0 0 1 2.885-2.851c1.237-.663 2.648-.994 4.233-.994zm-10.718.202v16.07h-4.99v-2.909a5.354 5.354 0 0 1-2.074 2.247c-.919.556-1.988.835-3.206.835-1.857 0-3.332-.615-4.425-1.843-1.092-1.23-1.639-2.919-1.639-5.07v-9.33h4.932v8.726c0 1.094.286 1.944.856 2.549.57.605 1.34.907 2.307.907 1.005 0 1.798-.317 2.379-.95.58-.634.87-1.536.87-2.708V5.242zM56.984 9.36c-1.064 0-1.92.346-2.57 1.037-.648.691-.972 1.651-.972 2.88 0 1.229.324 2.189.973 2.88.648.691 1.505 1.037 2.57 1.037 1.045 0 1.901-.356 2.569-1.066.668-.71 1.002-1.66 1.002-2.851 0-1.21-.334-2.165-1.002-2.866-.668-.7-1.524-1.051-2.57-1.051zm-1.603-4.32c1.236 0 2.299.278 3.187.835A4.858 4.858 0 0 1 60.51 8.15V0h4.955v21.312H60.51v-2.909a4.858 4.858 0 0 1-1.942 2.275c-.888.557-1.951.836-3.187.836-1.333 0-2.526-.332-3.58-.994-1.052-.662-1.883-1.618-2.491-2.866-.609-1.248-.913-2.707-.913-4.377 0-1.69.304-3.154.913-4.392.608-1.239 1.439-2.189 2.492-2.851 1.053-.663 2.246-.994 3.579-.994zM38.278 9.302c-.947 0-1.745.341-2.392 1.023-.648.681-.971 1.665-.971 2.952 0 1.286.323 2.265.97 2.937.648.672 1.446 1.008 2.393 1.008.947 0 1.74-.336 2.377-1.008.638-.672.957-1.65.957-2.937s-.319-2.27-.957-2.952c-.637-.682-1.43-1.023-2.377-1.023zm0-4.262c1.604 0 3.04.331 4.306.994a7.312 7.312 0 0 1 2.986 2.865c.725 1.248 1.087 2.707 1.087 4.378 0 1.67-.362 3.13-1.087 4.377a7.312 7.312 0 0 1-2.986 2.866c-1.267.662-2.702.994-4.306.994s-3.045-.332-4.32-.994a7.289 7.289 0 0 1-3.001-2.866c-.725-1.248-1.088-2.707-1.088-4.377s.363-3.13 1.088-4.378a7.289 7.289 0 0 1 3-2.865c1.276-.663 2.717-.994 4.32-.994zM23.05 8.266a7.01 7.01 0 0 1 2.39-2.333 6.128 6.128 0 0 1 3.172-.864v5.27h-1.42c-1.313 0-2.332.279-3.056.835-.724.557-1.086 1.498-1.086 2.823v7.315h-4.953V5.242h4.953zm-15.42 1.958c1.99 0 2.986-.874 2.986-2.62 0-1.786-.995-2.68-2.986-2.68H5.108v5.3zM5.108 14.17v7.142H.15V.95h8.031c2.436 0 4.292.6 5.567 1.8 1.276 1.2 1.914 2.818 1.914 4.853 0 1.267-.285 2.395-.855 3.384-.57.989-1.416 1.767-2.537 2.333-1.121.566-2.484.85-4.088.85z"/></g></g></svg>