<svg xmlns="http://www.w3.org/2000/svg" width="252" height="71" viewBox="0 0 252 71"><defs><mask id="tjdhb" width="2" height="2" x="-1" y="-1"><path fill="#fff" d="M6 4h240v59H6z"/><path d="M201.5 63a8.504 8.504 0 0 1-8.126-6H32C17.64 57 6 45.36 6 31v-1C6 15.64 17.64 4 32 4h188c14.36 0 26 11.64 26 26v1c0 14.36-11.64 26-26 26h-10.374a8.504 8.504 0 0 1-8.126 6z"/></mask><filter id="tjdha" width="276" height="97" x="-12" y="-14" filterUnits="userSpaceOnUse"><feOffset dy="2" in="SourceGraphic" result="FeOffset1057Out"/><feGaussianBlur in="FeOffset1057Out" result="FeGaussianBlur1058Out" stdDeviation="3.2 3.2"/></filter></defs><g><g><g filter="url(#tjdha)"><path fill="none" d="M201.5 63a8.504 8.504 0 0 1-8.126-6H32C17.64 57 6 45.36 6 31v-1C6 15.64 17.64 4 32 4h188c14.36 0 26 11.64 26 26v1c0 14.36-11.64 26-26 26h-10.374a8.504 8.504 0 0 1-8.126 6z" mask="url(&quot;#tjdhb&quot;)"/><path fill="#567592" fill-opacity=".1" d="M201.5 63a8.504 8.504 0 0 1-8.126-6H32C17.64 57 6 45.36 6 31v-1C6 15.64 17.64 4 32 4h188c14.36 0 26 11.64 26 26v1c0 14.36-11.64 26-26 26h-10.374a8.504 8.504 0 0 1-8.126 6z"/></g><path fill="#fff" d="M201.5 63a8.504 8.504 0 0 1-8.126-6H32C17.64 57 6 45.36 6 31v-1C6 15.64 17.64 4 32 4h188c14.36 0 26 11.64 26 26v1c0 14.36-11.64 26-26 26h-10.374a8.504 8.504 0 0 1-8.126 6z"/></g></g></svg>